# xmcd
#
# Track frame offsets:
#	150
#	13700
#	29230
#	46266
#	62264
#	78708
#	94279
#	109238
#	122482
#	136967
#	155122
#	170229
#	187337
#	203281
#	216444
#	232189
#	248779
#	264755
#	280444
#	301442
#	319798
#	335700
#
# Disc length: 4667 seconds
#
# Revision: 0
# Processed by: cddbd v1.5.2PL0 Copyright (c) Steve Scherf et al.
# Submitted via: EasyCDDAExtractor 16.0.6.1
#
DISCID=51123916
DTITLE=Mastruz com Leite - Em Todos os Sentidos
DYEAR=2009
DGENRE=Forró
TTITLE0=Em todos os sentidos
TTITLE1=Ao passo da loucura
TTITLE2=Sei me cuidar
TTITLE3=Inconsolável
TTITLE4=História encantada
TTITLE5=Fazer amor com outra
TTITLE6=Sereia do mar
TTITLE7=Errei, você errou
TTITLE8=A Rival
TTITLE9=Você ainda gosta dela
TTITLE10=Amor palhaço
TTITLE11=Eu acho que tu tá se achando
TTITLE12=Obra de arte
TTITLE13=Guardiã
TTITLE14=Dispenso seus conselhos
TTITLE15=Cirurgia plástica
TTITLE16=Eu vou deixar de beber
TTITLE17=Sou natureza, sou mãe
TTITLE18=Canindé que a gente ama
TTITLE19=Mulherada
TTITLE20=Bem amada
TTITLE21=Mentira, ilusão
EXTD=
EXTT0=
EXTT1=
EXTT2=
EXTT3=
EXTT4=
EXTT5=
EXTT6=
EXTT7=
EXTT8=
EXTT9=
EXTT10=
EXTT11=
EXTT12=
EXTT13=
EXTT14=
EXTT15=
EXTT16=
EXTT17=
EXTT18=
EXTT19=
EXTT20=
EXTT21=
PLAYORDER=
